<mxfile host="app.diagrams.net" modified="2024-02-20T18:38:55.426Z" agent="Mozilla/5.0 (Windows NT 10.0; Win64; x64) AppleWebKit/537.36 (KHTML, like Gecko) Chrome/121.0.0.0 Safari/537.36" etag="fRIpRg9vHBd9LSmuJbw8" version="23.1.5" type="google">
  <diagram name="Page-1" id="2YBvvXClWsGukQMizWep">
    <mxGraphModel grid="1" page="1" gridSize="10" guides="1" tooltips="1" connect="1" arrows="1" fold="1" pageScale="1" pageWidth="850" pageHeight="1100" math="0" shadow="0">
      <root>
        <mxCell id="0" />
        <mxCell id="1" parent="0" />
        <mxCell id="Dh5LzNw2CGYhvKTYr0om-2" value="" style="html=1;points=[];perimeter=orthogonalPerimeter;outlineConnect=0;targetShapes=umlLifeline;portConstraint=eastwest;newEdgeStyle={&quot;edgeStyle&quot;:&quot;elbowEdgeStyle&quot;,&quot;elbow&quot;:&quot;vertical&quot;,&quot;curved&quot;:0,&quot;rounded&quot;:0};" vertex="1" parent="1">
          <mxGeometry x="85" y="500" width="10" height="650" as="geometry" />
        </mxCell>
        <mxCell id="Dh5LzNw2CGYhvKTYr0om-5" value="Actor" style="shape=umlActor;verticalLabelPosition=bottom;verticalAlign=top;html=1;" vertex="1" parent="1">
          <mxGeometry x="75" y="390" width="30" height="60" as="geometry" />
        </mxCell>
        <mxCell id="Dh5LzNw2CGYhvKTYr0om-6" value="" style="endArrow=none;dashed=1;html=1;rounded=0;" edge="1" parent="1" source="Dh5LzNw2CGYhvKTYr0om-2">
          <mxGeometry width="50" height="50" relative="1" as="geometry">
            <mxPoint x="130" y="530" as="sourcePoint" />
            <mxPoint x="90" y="470" as="targetPoint" />
          </mxGeometry>
        </mxCell>
        <mxCell id="Dh5LzNw2CGYhvKTYr0om-7" value="" style="html=1;points=[];perimeter=orthogonalPerimeter;outlineConnect=0;targetShapes=umlLifeline;portConstraint=eastwest;newEdgeStyle={&quot;edgeStyle&quot;:&quot;elbowEdgeStyle&quot;,&quot;elbow&quot;:&quot;vertical&quot;,&quot;curved&quot;:0,&quot;rounded&quot;:0};" vertex="1" parent="1">
          <mxGeometry x="265" y="520" width="10" height="60" as="geometry" />
        </mxCell>
        <mxCell id="Dh5LzNw2CGYhvKTYr0om-8" value="" style="endArrow=classic;html=1;rounded=0;" edge="1" parent="1" target="Dh5LzNw2CGYhvKTYr0om-7">
          <mxGeometry width="50" height="50" relative="1" as="geometry">
            <mxPoint x="95" y="520" as="sourcePoint" />
            <mxPoint x="145" y="470" as="targetPoint" />
          </mxGeometry>
        </mxCell>
        <mxCell id="Dh5LzNw2CGYhvKTYr0om-10" value="LoginUI" style="rounded=0;whiteSpace=wrap;html=1;" vertex="1" parent="1">
          <mxGeometry x="230" y="410" width="80" height="50" as="geometry" />
        </mxCell>
        <mxCell id="Dh5LzNw2CGYhvKTYr0om-11" value="" style="endArrow=none;dashed=1;html=1;rounded=0;entryX=0.5;entryY=1;entryDx=0;entryDy=0;entryPerimeter=0;" edge="1" parent="1" source="Dh5LzNw2CGYhvKTYr0om-7" target="Dh5LzNw2CGYhvKTYr0om-10">
          <mxGeometry width="50" height="50" relative="1" as="geometry">
            <mxPoint x="215" y="510" as="sourcePoint" />
            <mxPoint x="265" y="460" as="targetPoint" />
            <Array as="points">
              <mxPoint x="270" y="480" />
            </Array>
          </mxGeometry>
        </mxCell>
        <mxCell id="Dh5LzNw2CGYhvKTYr0om-12" value="&lt;font style=&quot;font-size: 10px;&quot;&gt;1.1.Register&lt;/font&gt;" style="text;html=1;align=center;verticalAlign=middle;resizable=0;points=[];autosize=1;strokeColor=none;fillColor=none;" vertex="1" parent="1">
          <mxGeometry x="105" y="485" width="80" height="30" as="geometry" />
        </mxCell>
        <mxCell id="Dh5LzNw2CGYhvKTYr0om-13" value="SearchUI" style="rounded=0;whiteSpace=wrap;html=1;" vertex="1" parent="1">
          <mxGeometry x="450" y="410" width="80" height="50" as="geometry" />
        </mxCell>
        <mxCell id="Dh5LzNw2CGYhvKTYr0om-14" value="BookMarks UI" style="rounded=0;whiteSpace=wrap;html=1;" vertex="1" parent="1">
          <mxGeometry x="575" y="410" width="80" height="50" as="geometry" />
        </mxCell>
        <mxCell id="Dh5LzNw2CGYhvKTYr0om-15" value="Profile Page" style="rounded=0;whiteSpace=wrap;html=1;" vertex="1" parent="1">
          <mxGeometry x="715" y="410" width="80" height="50" as="geometry" />
        </mxCell>
        <mxCell id="Dh5LzNw2CGYhvKTYr0om-16" value=":Databse" style="rounded=0;whiteSpace=wrap;html=1;" vertex="1" parent="1">
          <mxGeometry x="845" y="410" width="80" height="50" as="geometry" />
        </mxCell>
        <mxCell id="Dh5LzNw2CGYhvKTYr0om-20" value="" style="endArrow=none;dashed=1;html=1;rounded=0;entryX=0.5;entryY=1;entryDx=0;entryDy=0;entryPerimeter=0;" edge="1" parent="1">
          <mxGeometry width="50" height="50" relative="1" as="geometry">
            <mxPoint x="269.68" y="640" as="sourcePoint" />
            <mxPoint x="269.68" y="580" as="targetPoint" />
            <Array as="points">
              <mxPoint x="269.68" y="600" />
            </Array>
          </mxGeometry>
        </mxCell>
        <mxCell id="Dh5LzNw2CGYhvKTYr0om-21" value="" style="html=1;points=[];perimeter=orthogonalPerimeter;outlineConnect=0;targetShapes=umlLifeline;portConstraint=eastwest;newEdgeStyle={&quot;edgeStyle&quot;:&quot;elbowEdgeStyle&quot;,&quot;elbow&quot;:&quot;vertical&quot;,&quot;curved&quot;:0,&quot;rounded&quot;:0};" vertex="1" parent="1">
          <mxGeometry x="265" y="600" width="10" height="60" as="geometry" />
        </mxCell>
        <mxCell id="Dh5LzNw2CGYhvKTYr0om-22" value="" style="endArrow=classic;html=1;rounded=0;" edge="1" parent="1">
          <mxGeometry width="50" height="50" relative="1" as="geometry">
            <mxPoint x="95" y="600" as="sourcePoint" />
            <mxPoint x="270" y="600" as="targetPoint" />
          </mxGeometry>
        </mxCell>
        <mxCell id="Dh5LzNw2CGYhvKTYr0om-23" value="&lt;span style=&quot;font-size: 10px;&quot;&gt;1.2. login&amp;nbsp;&lt;/span&gt;" style="text;html=1;align=center;verticalAlign=middle;resizable=0;points=[];autosize=1;strokeColor=none;fillColor=none;" vertex="1" parent="1">
          <mxGeometry x="110" y="570" width="70" height="30" as="geometry" />
        </mxCell>
        <mxCell id="Dh5LzNw2CGYhvKTYr0om-24" value="" style="endArrow=classic;html=1;rounded=0;entryX=0.954;entryY=0.959;entryDx=0;entryDy=0;entryPerimeter=0;" edge="1" parent="1" source="Dh5LzNw2CGYhvKTYr0om-21" target="Dh5LzNw2CGYhvKTYr0om-26">
          <mxGeometry width="50" height="50" relative="1" as="geometry">
            <mxPoint x="755.0000000000002" y="598.75" as="sourcePoint" />
            <mxPoint x="859.9999999999998" y="598.75" as="targetPoint" />
          </mxGeometry>
        </mxCell>
        <mxCell id="Dh5LzNw2CGYhvKTYr0om-25" value="" style="html=1;points=[];perimeter=orthogonalPerimeter;outlineConnect=0;targetShapes=umlLifeline;portConstraint=eastwest;newEdgeStyle={&quot;edgeStyle&quot;:&quot;elbowEdgeStyle&quot;,&quot;elbow&quot;:&quot;vertical&quot;,&quot;curved&quot;:0,&quot;rounded&quot;:0};" vertex="1" parent="1">
          <mxGeometry x="880" y="600" width="10" height="60" as="geometry" />
        </mxCell>
        <mxCell id="Dh5LzNw2CGYhvKTYr0om-26" value="&lt;span style=&quot;font-size: 10px;&quot;&gt;1.3. Validate Email&amp;nbsp;&lt;br&gt;and password&amp;nbsp;&amp;nbsp;&lt;/span&gt;" style="text;html=1;align=center;verticalAlign=middle;resizable=0;points=[];autosize=1;strokeColor=none;fillColor=none;" vertex="1" parent="1">
          <mxGeometry x="775" y="560" width="110" height="40" as="geometry" />
        </mxCell>
        <mxCell id="Dh5LzNw2CGYhvKTYr0om-27" value="" style="endArrow=none;dashed=1;html=1;rounded=0;entryX=0.5;entryY=1;entryDx=0;entryDy=0;" edge="1" parent="1" source="Dh5LzNw2CGYhvKTYr0om-25" target="Dh5LzNw2CGYhvKTYr0om-16">
          <mxGeometry width="50" height="50" relative="1" as="geometry">
            <mxPoint x="405" y="530" as="sourcePoint" />
            <mxPoint x="455" y="480" as="targetPoint" />
          </mxGeometry>
        </mxCell>
        <mxCell id="Dh5LzNw2CGYhvKTYr0om-28" value="I" style="endArrow=open;endSize=12;dashed=1;html=1;rounded=0;exitX=0.5;exitY=0.985;exitDx=0;exitDy=0;exitPerimeter=0;entryX=0.5;entryY=0.985;entryDx=0;entryDy=0;entryPerimeter=0;" edge="1" parent="1" source="Dh5LzNw2CGYhvKTYr0om-25" target="Dh5LzNw2CGYhvKTYr0om-21">
          <mxGeometry x="-0.3333" y="31" width="160" relative="1" as="geometry">
            <mxPoint x="470" y="659.09" as="sourcePoint" />
            <mxPoint x="365" y="659.09" as="targetPoint" />
            <mxPoint as="offset" />
          </mxGeometry>
        </mxCell>
        <mxCell id="Dh5LzNw2CGYhvKTYr0om-29" value="&lt;span style=&quot;font-size: 10px;&quot;&gt;(Alternate Flow) &lt;br&gt;Error Message&amp;nbsp;&lt;/span&gt;" style="text;html=1;align=center;verticalAlign=middle;resizable=0;points=[];autosize=1;strokeColor=none;fillColor=none;" vertex="1" parent="1">
          <mxGeometry x="790" y="660" width="90" height="40" as="geometry" />
        </mxCell>
        <mxCell id="Dh5LzNw2CGYhvKTYr0om-30" value="&lt;span style=&quot;font-size: 10px;&quot;&gt;1.4. User login &lt;br&gt;accepted&lt;/span&gt;" style="text;html=1;align=center;verticalAlign=middle;resizable=0;points=[];autosize=1;strokeColor=none;fillColor=none;" vertex="1" parent="1">
          <mxGeometry x="790" y="620" width="90" height="40" as="geometry" />
        </mxCell>
        <mxCell id="Dh5LzNw2CGYhvKTYr0om-31" value="MainUI" style="rounded=0;whiteSpace=wrap;html=1;" vertex="1" parent="1">
          <mxGeometry x="330" y="410" width="80" height="50" as="geometry" />
        </mxCell>
        <mxCell id="Dh5LzNw2CGYhvKTYr0om-32" value="" style="html=1;points=[];perimeter=orthogonalPerimeter;outlineConnect=0;targetShapes=umlLifeline;portConstraint=eastwest;newEdgeStyle={&quot;edgeStyle&quot;:&quot;elbowEdgeStyle&quot;,&quot;elbow&quot;:&quot;vertical&quot;,&quot;curved&quot;:0,&quot;rounded&quot;:0};" vertex="1" parent="1">
          <mxGeometry x="265" y="700" width="10" height="60" as="geometry" />
        </mxCell>
        <mxCell id="Dh5LzNw2CGYhvKTYr0om-33" value="" style="html=1;points=[];perimeter=orthogonalPerimeter;outlineConnect=0;targetShapes=umlLifeline;portConstraint=eastwest;newEdgeStyle={&quot;edgeStyle&quot;:&quot;elbowEdgeStyle&quot;,&quot;elbow&quot;:&quot;vertical&quot;,&quot;curved&quot;:0,&quot;rounded&quot;:0};" vertex="1" parent="1">
          <mxGeometry x="365" y="700" width="10" height="60" as="geometry" />
        </mxCell>
        <mxCell id="Dh5LzNw2CGYhvKTYr0om-34" value="" style="endArrow=none;dashed=1;html=1;rounded=0;entryX=0.5;entryY=1;entryDx=0;entryDy=0;" edge="1" parent="1" target="Dh5LzNw2CGYhvKTYr0om-31">
          <mxGeometry width="50" height="50" relative="1" as="geometry">
            <mxPoint x="370" y="700" as="sourcePoint" />
            <mxPoint x="450" y="540" as="targetPoint" />
          </mxGeometry>
        </mxCell>
        <mxCell id="Dh5LzNw2CGYhvKTYr0om-35" value="" style="endArrow=none;dashed=1;html=1;rounded=0;" edge="1" parent="1" source="Dh5LzNw2CGYhvKTYr0om-32">
          <mxGeometry width="50" height="50" relative="1" as="geometry">
            <mxPoint x="270" y="690" as="sourcePoint" />
            <mxPoint x="270" y="660" as="targetPoint" />
          </mxGeometry>
        </mxCell>
        <mxCell id="Dh5LzNw2CGYhvKTYr0om-36" value="" style="endArrow=classic;html=1;rounded=0;" edge="1" parent="1">
          <mxGeometry width="50" height="50" relative="1" as="geometry">
            <mxPoint x="270" y="700" as="sourcePoint" />
            <mxPoint x="370" y="700" as="targetPoint" />
          </mxGeometry>
        </mxCell>
        <mxCell id="Dh5LzNw2CGYhvKTYr0om-37" value="&lt;font style=&quot;font-size: 10px;&quot;&gt;1.5.User login &lt;br&gt;accepted&lt;/font&gt;" style="text;html=1;align=center;verticalAlign=middle;resizable=0;points=[];autosize=1;strokeColor=none;fillColor=none;" vertex="1" parent="1">
          <mxGeometry x="270" y="660" width="90" height="40" as="geometry" />
        </mxCell>
        <mxCell id="Dh5LzNw2CGYhvKTYr0om-38" value="" style="endArrow=open;endSize=12;dashed=1;html=1;rounded=0;entryX=0.5;entryY=0.985;entryDx=0;entryDy=0;entryPerimeter=0;" edge="1" parent="1">
          <mxGeometry x="-0.3333" y="31" width="160" relative="1" as="geometry">
            <mxPoint x="365" y="759.23" as="sourcePoint" />
            <mxPoint x="275" y="759.46" as="targetPoint" />
            <mxPoint as="offset" />
          </mxGeometry>
        </mxCell>
        <mxCell id="Dh5LzNw2CGYhvKTYr0om-39" value="&lt;span style=&quot;font-size: 10px;&quot;&gt;2.1,2.2,2.3&lt;br&gt;&lt;/span&gt;&amp;nbsp;" style="text;html=1;align=center;verticalAlign=middle;resizable=0;points=[];autosize=1;strokeColor=none;fillColor=none;" vertex="1" parent="1">
          <mxGeometry x="290" y="730" width="70" height="40" as="geometry" />
        </mxCell>
        <mxCell id="Dh5LzNw2CGYhvKTYr0om-40" value="" style="endArrow=none;dashed=1;html=1;rounded=0;" edge="1" parent="1">
          <mxGeometry width="50" height="50" relative="1" as="geometry">
            <mxPoint x="489.44" y="790.0000000000002" as="sourcePoint" />
            <mxPoint x="489.44" y="460" as="targetPoint" />
          </mxGeometry>
        </mxCell>
        <mxCell id="Dh5LzNw2CGYhvKTYr0om-43" value="" style="html=1;points=[];perimeter=orthogonalPerimeter;outlineConnect=0;targetShapes=umlLifeline;portConstraint=eastwest;newEdgeStyle={&quot;edgeStyle&quot;:&quot;elbowEdgeStyle&quot;,&quot;elbow&quot;:&quot;vertical&quot;,&quot;curved&quot;:0,&quot;rounded&quot;:0};" vertex="1" parent="1">
          <mxGeometry x="265" y="790" width="10" height="60" as="geometry" />
        </mxCell>
        <mxCell id="Dh5LzNw2CGYhvKTYr0om-47" value="" style="endArrow=none;dashed=1;html=1;rounded=0;" edge="1" parent="1" source="Dh5LzNw2CGYhvKTYr0om-43" target="Dh5LzNw2CGYhvKTYr0om-32">
          <mxGeometry width="50" height="50" relative="1" as="geometry">
            <mxPoint x="280" y="530" as="sourcePoint" />
            <mxPoint x="280" y="470" as="targetPoint" />
            <Array as="points" />
          </mxGeometry>
        </mxCell>
        <mxCell id="Dh5LzNw2CGYhvKTYr0om-48" value="" style="html=1;points=[];perimeter=orthogonalPerimeter;outlineConnect=0;targetShapes=umlLifeline;portConstraint=eastwest;newEdgeStyle={&quot;edgeStyle&quot;:&quot;elbowEdgeStyle&quot;,&quot;elbow&quot;:&quot;vertical&quot;,&quot;curved&quot;:0,&quot;rounded&quot;:0};" vertex="1" parent="1">
          <mxGeometry x="485" y="790" width="10" height="60" as="geometry" />
        </mxCell>
        <mxCell id="Dh5LzNw2CGYhvKTYr0om-49" value="" style="endArrow=classic;html=1;rounded=0;" edge="1" parent="1" source="Dh5LzNw2CGYhvKTYr0om-43" target="Dh5LzNw2CGYhvKTYr0om-48">
          <mxGeometry width="50" height="50" relative="1" as="geometry">
            <mxPoint x="280" y="790" as="sourcePoint" />
            <mxPoint x="280" y="610" as="targetPoint" />
            <Array as="points">
              <mxPoint x="390" y="790" />
            </Array>
          </mxGeometry>
        </mxCell>
        <mxCell id="Dh5LzNw2CGYhvKTYr0om-50" value="&lt;span style=&quot;font-size: 10px;&quot;&gt;3.1. Search stock&lt;/span&gt;" style="text;html=1;align=center;verticalAlign=middle;resizable=0;points=[];autosize=1;strokeColor=none;fillColor=none;" vertex="1" parent="1">
          <mxGeometry x="370" y="755" width="100" height="30" as="geometry" />
        </mxCell>
        <mxCell id="Dh5LzNw2CGYhvKTYr0om-52" value="" style="endArrow=open;endSize=12;dashed=1;html=1;rounded=0;entryX=0.5;entryY=0.985;entryDx=0;entryDy=0;entryPerimeter=0;" edge="1" parent="1" source="Dh5LzNw2CGYhvKTYr0om-48">
          <mxGeometry x="-0.3333" y="31" width="160" relative="1" as="geometry">
            <mxPoint x="480" y="850" as="sourcePoint" />
            <mxPoint x="275" y="849.73" as="targetPoint" />
            <mxPoint as="offset" />
          </mxGeometry>
        </mxCell>
        <mxCell id="Dh5LzNw2CGYhvKTYr0om-53" value="&lt;span style=&quot;font-size: 10px;&quot;&gt;3.2. Provide detailed graph and information&lt;/span&gt;" style="text;html=1;align=center;verticalAlign=middle;resizable=0;points=[];autosize=1;strokeColor=none;fillColor=none;" vertex="1" parent="1">
          <mxGeometry x="285" y="820" width="210" height="30" as="geometry" />
        </mxCell>
        <mxCell id="Dh5LzNw2CGYhvKTYr0om-54" value="" style="endArrow=none;dashed=1;html=1;rounded=0;" edge="1" parent="1">
          <mxGeometry width="50" height="50" relative="1" as="geometry">
            <mxPoint x="490" y="920" as="sourcePoint" />
            <mxPoint x="490" y="850" as="targetPoint" />
          </mxGeometry>
        </mxCell>
        <mxCell id="Dh5LzNw2CGYhvKTYr0om-55" value="" style="html=1;points=[];perimeter=orthogonalPerimeter;outlineConnect=0;targetShapes=umlLifeline;portConstraint=eastwest;newEdgeStyle={&quot;edgeStyle&quot;:&quot;elbowEdgeStyle&quot;,&quot;elbow&quot;:&quot;vertical&quot;,&quot;curved&quot;:0,&quot;rounded&quot;:0};" vertex="1" parent="1">
          <mxGeometry x="485" y="900" width="10" height="60" as="geometry" />
        </mxCell>
        <mxCell id="Dh5LzNw2CGYhvKTYr0om-56" value="" style="endArrow=none;dashed=1;html=1;rounded=0;entryX=0.5;entryY=1;entryDx=0;entryDy=0;" edge="1" parent="1" target="Dh5LzNw2CGYhvKTYr0om-14">
          <mxGeometry width="50" height="50" relative="1" as="geometry">
            <mxPoint x="615" y="900" as="sourcePoint" />
            <mxPoint x="520" y="310" as="targetPoint" />
          </mxGeometry>
        </mxCell>
        <mxCell id="Dh5LzNw2CGYhvKTYr0om-57" value="" style="html=1;points=[];perimeter=orthogonalPerimeter;outlineConnect=0;targetShapes=umlLifeline;portConstraint=eastwest;newEdgeStyle={&quot;edgeStyle&quot;:&quot;elbowEdgeStyle&quot;,&quot;elbow&quot;:&quot;vertical&quot;,&quot;curved&quot;:0,&quot;rounded&quot;:0};" vertex="1" parent="1">
          <mxGeometry x="610" y="900" width="10" height="60" as="geometry" />
        </mxCell>
        <mxCell id="Dh5LzNw2CGYhvKTYr0om-58" value="" style="endArrow=classic;html=1;rounded=0;" edge="1" parent="1">
          <mxGeometry width="50" height="50" relative="1" as="geometry">
            <mxPoint x="495" y="900" as="sourcePoint" />
            <mxPoint x="610" y="900" as="targetPoint" />
          </mxGeometry>
        </mxCell>
        <mxCell id="Dh5LzNw2CGYhvKTYr0om-59" value="&lt;font style=&quot;font-size: 9px;&quot;&gt;3.3. Bookmark stocks that &lt;br&gt;user looking out for&amp;nbsp;&lt;/font&gt;" style="text;html=1;align=center;verticalAlign=middle;resizable=0;points=[];autosize=1;strokeColor=none;fillColor=none;" vertex="1" parent="1">
          <mxGeometry x="485" y="863" width="130" height="40" as="geometry" />
        </mxCell>
        <mxCell id="Dh5LzNw2CGYhvKTYr0om-61" value="" style="endArrow=open;endSize=12;dashed=1;html=1;rounded=0;entryX=0.5;entryY=0.985;entryDx=0;entryDy=0;entryPerimeter=0;" edge="1" parent="1" source="Dh5LzNw2CGYhvKTYr0om-57">
          <mxGeometry x="-0.3333" y="31" width="160" relative="1" as="geometry">
            <mxPoint x="585" y="958.95" as="sourcePoint" />
            <mxPoint x="495" y="959.1800000000001" as="targetPoint" />
            <mxPoint as="offset" />
          </mxGeometry>
        </mxCell>
        <mxCell id="Dh5LzNw2CGYhvKTYr0om-62" value="&lt;font style=&quot;font-size: 9px;&quot;&gt;4.1.&amp;nbsp; View the stocks saved&amp;nbsp;&amp;nbsp;&lt;/font&gt;" style="text;html=1;align=center;verticalAlign=middle;resizable=0;points=[];autosize=1;strokeColor=none;fillColor=none;" vertex="1" parent="1">
          <mxGeometry x="485" y="925" width="140" height="30" as="geometry" />
        </mxCell>
        <mxCell id="Dh5LzNw2CGYhvKTYr0om-63" value="" style="endArrow=none;dashed=1;html=1;rounded=0;" edge="1" parent="1" source="Dh5LzNw2CGYhvKTYr0om-70">
          <mxGeometry width="50" height="50" relative="1" as="geometry">
            <mxPoint x="280" y="1000" as="sourcePoint" />
            <mxPoint x="270" y="850" as="targetPoint" />
            <Array as="points" />
          </mxGeometry>
        </mxCell>
        <mxCell id="Dh5LzNw2CGYhvKTYr0om-64" value="" style="html=1;points=[];perimeter=orthogonalPerimeter;outlineConnect=0;targetShapes=umlLifeline;portConstraint=eastwest;newEdgeStyle={&quot;edgeStyle&quot;:&quot;elbowEdgeStyle&quot;,&quot;elbow&quot;:&quot;vertical&quot;,&quot;curved&quot;:0,&quot;rounded&quot;:0};" vertex="1" parent="1">
          <mxGeometry x="265" y="1090" width="10" height="60" as="geometry" />
        </mxCell>
        <mxCell id="Dh5LzNw2CGYhvKTYr0om-67" value="" style="endArrow=open;endSize=12;dashed=1;html=1;rounded=0;exitX=0.5;exitY=1.004;exitDx=0;exitDy=0;exitPerimeter=0;" edge="1" parent="1">
          <mxGeometry x="-0.3333" y="31" width="160" relative="1" as="geometry">
            <mxPoint x="264.9999999999998" y="1150.2399999999998" as="sourcePoint" />
            <mxPoint x="95" y="1150" as="targetPoint" />
            <mxPoint as="offset" />
            <Array as="points" />
          </mxGeometry>
        </mxCell>
        <mxCell id="Dh5LzNw2CGYhvKTYr0om-68" value="6.Logout" style="text;html=1;align=center;verticalAlign=middle;resizable=0;points=[];autosize=1;strokeColor=none;fillColor=none;" vertex="1" parent="1">
          <mxGeometry x="140" y="1120" width="70" height="30" as="geometry" />
        </mxCell>
        <mxCell id="Dh5LzNw2CGYhvKTYr0om-71" value="" style="endArrow=none;dashed=1;html=1;rounded=0;" edge="1" parent="1" source="Dh5LzNw2CGYhvKTYr0om-64" target="Dh5LzNw2CGYhvKTYr0om-70">
          <mxGeometry width="50" height="50" relative="1" as="geometry">
            <mxPoint x="270" y="1090" as="sourcePoint" />
            <mxPoint x="270" y="850" as="targetPoint" />
            <Array as="points" />
          </mxGeometry>
        </mxCell>
        <mxCell id="Dh5LzNw2CGYhvKTYr0om-70" value="" style="html=1;points=[];perimeter=orthogonalPerimeter;outlineConnect=0;targetShapes=umlLifeline;portConstraint=eastwest;newEdgeStyle={&quot;edgeStyle&quot;:&quot;elbowEdgeStyle&quot;,&quot;elbow&quot;:&quot;vertical&quot;,&quot;curved&quot;:0,&quot;rounded&quot;:0};" vertex="1" parent="1">
          <mxGeometry x="265" y="990" width="10" height="60" as="geometry" />
        </mxCell>
        <mxCell id="Dh5LzNw2CGYhvKTYr0om-72" value="" style="endArrow=classic;html=1;rounded=0;" edge="1" parent="1">
          <mxGeometry width="50" height="50" relative="1" as="geometry">
            <mxPoint x="95" y="990" as="sourcePoint" />
            <mxPoint x="265" y="990" as="targetPoint" />
          </mxGeometry>
        </mxCell>
        <mxCell id="Dh5LzNw2CGYhvKTYr0om-73" value="5.1. Change Password" style="text;html=1;align=center;verticalAlign=middle;resizable=0;points=[];autosize=1;strokeColor=none;fillColor=none;" vertex="1" parent="1">
          <mxGeometry x="110" y="960" width="140" height="30" as="geometry" />
        </mxCell>
        <mxCell id="Dh5LzNw2CGYhvKTYr0om-75" value="" style="endArrow=none;dashed=1;html=1;rounded=0;entryX=0.5;entryY=1;entryDx=0;entryDy=0;" edge="1" parent="1" source="Dh5LzNw2CGYhvKTYr0om-76">
          <mxGeometry width="50" height="50" relative="1" as="geometry">
            <mxPoint x="884" y="970" as="sourcePoint" />
            <mxPoint x="884.38" y="660" as="targetPoint" />
          </mxGeometry>
        </mxCell>
        <mxCell id="Dh5LzNw2CGYhvKTYr0om-76" value="" style="html=1;points=[];perimeter=orthogonalPerimeter;outlineConnect=0;targetShapes=umlLifeline;portConstraint=eastwest;newEdgeStyle={&quot;edgeStyle&quot;:&quot;elbowEdgeStyle&quot;,&quot;elbow&quot;:&quot;vertical&quot;,&quot;curved&quot;:0,&quot;rounded&quot;:0};" vertex="1" parent="1">
          <mxGeometry x="880" y="990" width="10" height="60" as="geometry" />
        </mxCell>
        <mxCell id="Dh5LzNw2CGYhvKTYr0om-77" value="" style="endArrow=classic;html=1;rounded=0;" edge="1" parent="1">
          <mxGeometry width="50" height="50" relative="1" as="geometry">
            <mxPoint x="275" y="990" as="sourcePoint" />
            <mxPoint x="880" y="990" as="targetPoint" />
          </mxGeometry>
        </mxCell>
        <mxCell id="Dh5LzNw2CGYhvKTYr0om-78" value="&lt;font style=&quot;font-size: 9px;&quot;&gt;5.1.1.Verify password &lt;br&gt;with old passwor&lt;/font&gt;&lt;font style=&quot;font-size: 9px;&quot;&gt;d&lt;/font&gt;" style="text;html=1;align=center;verticalAlign=middle;resizable=0;points=[];autosize=1;strokeColor=none;fillColor=none;" vertex="1" parent="1">
          <mxGeometry x="760" y="950" width="110" height="40" as="geometry" />
        </mxCell>
      </root>
    </mxGraphModel>
  </diagram>
</mxfile>
